<svg class="mx-auto" width="50" height="12" viewBox="0 0 50 12" fill="none" xmlns="http://www.w3.org/2000/svg"><path d="M26.4181 9.59541C25.6615 9.72318 24.8952 9.78224 24.1286 9.77229C22.6904 9.77229 21.1484 8.80562 21.1484 6.10628V4.5264C21.1484 1.66404 22.7651 0.850143 24.2305 0.850143C24.963 0.843514 25.6946 0.898657 26.4181 1.01497C26.5203 1.02702 26.6143 1.07313 26.6143 1.19185V1.78066C26.6143 1.86322 26.5691 1.89938 26.4651 1.89938H26.4202C25.7413 1.84092 25.2116 1.81682 24.2326 1.81682C23.1631 1.81682 22.1962 2.40592 22.1962 4.5264V6.10628C22.1962 8.05199 23.0592 8.81767 24.1304 8.81767C24.831 8.81767 25.3077 8.77157 25.5783 8.74716V5.37646C25.5759 5.34693 25.5795 5.3168 25.5889 5.28847C25.5982 5.26045 25.613 5.23423 25.6326 5.21193C25.6518 5.18993 25.6757 5.17185 25.7022 5.1595C25.7287 5.14684 25.7573 5.14021 25.7865 5.13931H26.4082C26.4676 5.14262 26.5233 5.16884 26.5637 5.21314C26.6044 5.25743 26.6267 5.31589 26.6261 5.37646V9.33627C26.6279 9.39804 26.6077 9.45801 26.5697 9.50592C26.5314 9.55353 26.4775 9.58547 26.4181 9.59541Z" fill="white" fill-opacity="0.6"></path><path d="M30.9161 4.03139C30.3806 4.00969 29.8443 4.04947 29.3172 4.15011V9.45416C29.3199 9.51172 29.3013 9.56807 29.2648 9.61176C29.2283 9.65576 29.1768 9.68348 29.1211 9.68951H28.5226C28.4645 9.68619 28.4102 9.65998 28.3713 9.61568C28.3322 9.57169 28.312 9.51383 28.3147 9.45416V3.72584C28.318 3.66677 28.3388 3.60982 28.3741 3.56281C28.4093 3.51611 28.4578 3.48116 28.5127 3.46247C29.1681 3.16717 29.9627 3.13281 30.9161 3.13281C31.0671 3.13281 31.1593 3.14487 31.1593 3.3097V3.85059C31.1593 3.97323 31.1358 4.03139 30.9161 4.03139Z" fill="white" fill-opacity="0.6"></path><path d="M34.7341 9.77179C33.043 9.77179 32.1836 8.62823 32.1836 6.89557V5.99911C32.1836 4.26645 33.0469 3.125 34.7341 3.125C36.4215 3.125 37.2849 4.26645 37.2849 5.99911V6.89557C37.2849 8.62823 36.4155 9.77179 34.7341 9.77179ZM36.288 5.99911C36.288 4.79318 35.8152 4.03141 34.7341 4.03141C33.6532 4.03141 33.1922 4.78715 33.1922 5.99911V6.89557C33.1922 8.10151 33.6532 8.86538 34.7341 8.86538C35.8152 8.86538 36.288 8.10964 36.288 6.89557V5.99911Z" fill="white" fill-opacity="0.6"></path><path d="M41.1213 9.77155H41.0113C40.2267 9.77155 38.6413 9.32347 38.6413 7.00201V3.44237C38.6389 3.41224 38.6426 3.3821 38.6522 3.35348C38.6618 3.32515 38.6769 3.29894 38.6968 3.27694C38.7167 3.25494 38.7411 3.23716 38.7679 3.22511C38.7947 3.21306 38.824 3.20703 38.8532 3.20703H39.4516C39.4809 3.20763 39.5095 3.21396 39.5357 3.22632C39.5622 3.23867 39.586 3.25645 39.6056 3.27845C39.6249 3.30044 39.64 3.32636 39.6493 3.35468C39.6586 3.38271 39.662 3.41254 39.6595 3.44237V7.00201C39.6595 8.40893 40.2484 8.86515 41.0174 8.86515H41.1213C41.8903 8.86515 42.4791 8.41707 42.4791 7.00201V3.44237C42.4764 3.41284 42.48 3.38301 42.4894 3.35498C42.4984 3.32696 42.5132 3.30105 42.5325 3.27905C42.5517 3.25705 42.5752 3.23927 42.6015 3.22692C42.6277 3.21456 42.656 3.20794 42.6849 3.20703H43.2834C43.3123 3.20763 43.3409 3.21396 43.3674 3.22632C43.394 3.23867 43.4178 3.25645 43.4374 3.27845C43.4566 3.30044 43.4717 3.32636 43.481 3.35468C43.4901 3.38271 43.4937 3.41254 43.4913 3.44237V7.00201C43.4913 9.32347 41.9021 9.77155 41.1213 9.77155Z" fill="white" fill-opacity="0.6"></path><path d="M47.4133 9.77194C46.9619 9.76592 46.5117 9.72283 46.0672 9.64328V11.7761C46.0672 11.8053 46.0615 11.8343 46.0506 11.8614C46.0398 11.8885 46.0235 11.9129 46.0033 11.9337C45.9831 11.9545 45.9593 11.9708 45.9328 11.9822C45.9063 11.9934 45.878 11.9991 45.8493 11.9991H45.2608C45.2328 11.9988 45.2051 11.9928 45.1792 11.9813C45.1536 11.9699 45.1304 11.9533 45.1108 11.9325C45.0915 11.9117 45.0764 11.8873 45.0665 11.8602C45.0565 11.8334 45.0517 11.8047 45.0529 11.7761V3.66363C45.0529 3.51086 45.0882 3.44065 45.2943 3.39455C45.9877 3.22219 46.6979 3.13118 47.4111 3.12305C49.126 3.12305 49.9203 4.26479 49.9203 6.03362V6.87976C49.9224 8.73476 49.0926 9.77194 47.4133 9.77194ZM48.9082 6.03542C48.9082 4.79725 48.5529 3.99751 47.4133 3.99751C46.9622 4.00022 46.5123 4.03909 46.0672 4.11413V8.78116C46.5123 8.85589 46.9622 8.89567 47.4133 8.89959C48.5411 8.89959 48.9082 8.14596 48.9082 6.8897V6.03542Z" fill="white" fill-opacity="0.6"></path><path d="M6.3931 9.67528C5.87511 9.75785 4.43112 9.86241 3.93085 9.86241C1.70991 9.86241 0.203125 9.29139 0.203125 6.43325V1.22351C0.203637 1.19338 0.209996 1.16355 0.221869 1.13582C0.233711 1.1081 0.250826 1.08339 0.272221 1.0626C0.293585 1.04181 0.318775 1.02553 0.346317 1.01499C0.373889 1.00414 0.403241 0.99932 0.432681 1.00022H2.30829C2.33779 0.999019 2.36727 1.00384 2.39496 1.01439C2.42262 1.02493 2.44793 1.04121 2.46936 1.062C2.49078 1.08279 2.5079 1.1078 2.51965 1.13552C2.53143 1.16325 2.53761 1.19308 2.53785 1.22351V6.43325C2.53785 7.49454 2.88315 7.84017 3.70129 7.84017C4.07058 7.83897 4.43956 7.81486 4.80598 7.76785V1.22351C4.80598 1.19308 4.81231 1.16325 4.82406 1.13552C4.83581 1.1078 4.85299 1.08279 4.87438 1.062C4.89578 1.04121 4.92109 1.02493 4.94881 1.01439C4.97653 1.00384 5.00576 0.999019 5.03529 1.00022H6.89934C6.9599 0.997512 7.01957 1.01951 7.06446 1.06109C7.10966 1.10298 7.13709 1.16113 7.1407 1.22351V8.76677C7.1407 9.42608 6.94454 9.59302 6.3931 9.67528Z" fill="white"></path><path d="M10.7516 9.75781H8.86437C8.8038 9.756 8.74655 9.73038 8.70436 9.68609C8.66217 9.64179 8.63867 9.58243 8.63867 9.52066V1.22347C8.63927 1.19364 8.6453 1.16411 8.65705 1.13669C8.6688 1.10926 8.68538 1.08456 8.70647 1.06407C8.72726 1.04327 8.75197 1.027 8.77909 1.01585C8.80621 1.005 8.83514 0.999578 8.86437 1.00018H10.7516C10.7811 0.998976 10.8107 1.0038 10.8384 1.01434C10.8661 1.02489 10.8914 1.04086 10.9128 1.06195C10.9342 1.08275 10.9514 1.10776 10.9631 1.13548C10.9749 1.1632 10.9809 1.19303 10.9812 1.22347V9.52066C10.9815 9.5517 10.9758 9.58243 10.9644 9.61106C10.9529 9.63999 10.936 9.6662 10.9146 9.6882C10.8932 9.7102 10.8679 9.72768 10.8399 9.73973C10.8119 9.75148 10.7821 9.75781 10.7516 9.75781Z" fill="white"></path><path d="M17.4255 9.65121C16.9021 9.80429 16.3591 9.8754 15.8146 9.86245C13.6977 9.86245 12.2715 8.68454 12.2715 5.9852V4.77897C12.2715 2.07179 13.6977 0.893889 15.8146 0.893889C16.3588 0.881836 16.9018 0.952949 17.4255 1.10482C17.6099 1.16509 17.6786 1.19944 17.6786 1.36427V2.87364C17.6786 3.02642 17.6099 3.09663 17.4824 3.09663H17.4472C16.9123 3.03275 16.3747 2.99779 15.8362 2.99237C15.2143 2.99237 14.6592 3.27351 14.6592 4.77114V5.97707C14.6592 7.46233 15.2125 7.75794 15.8362 7.75794C16.3747 7.75161 16.9123 7.71606 17.4472 7.65127H17.4686C17.606 7.65127 17.6647 7.72178 17.6647 7.87456V9.39207C17.6786 9.54484 17.6099 9.59305 17.4255 9.65121Z" fill="white"></path></svg>