<svg width="101" height="36" viewBox="0 0 101 36" fill="none" xmlns="http://www.w3.org/2000/svg">
<path d="M18 13.5V10.5M18 31.5C13.0294 31.5 9 27.4706 9 22.5V13.5C9 8.52944 13.0294 4.5 18 4.5C22.9706 4.5 27 8.52944 27 13.5V22.5C27 27.4706 22.9706 31.5 18 31.5Z" stroke="white" stroke-width="2" stroke-linecap="round" stroke-linejoin="round"/>
<path d="M46.242 14.182C44.352 14.182 42.98 13.272 42.462 11.774L43.848 10.962C44.24 12.068 45.052 12.614 46.284 12.614C47.502 12.614 48.104 12.096 48.104 11.326C48.104 10.92 47.936 10.626 47.614 10.416C47.292 10.206 46.704 9.968 45.878 9.716C44.94 9.436 44.478 9.254 43.82 8.82C43.19 8.372 42.868 7.728 42.868 6.846C42.868 5.978 43.176 5.292 43.792 4.788C44.408 4.27 45.15 4.018 46.018 4.018C47.586 4.018 48.804 4.83 49.434 6.174L48.076 6.958C47.67 6.048 46.984 5.586 46.018 5.586C45.08 5.586 44.478 6.062 44.478 6.804C44.478 7.532 44.954 7.868 46.452 8.33C46.83 8.456 47.096 8.54 47.264 8.61C47.446 8.666 47.684 8.764 47.992 8.89C48.314 9.016 48.552 9.156 48.706 9.282C49.224 9.688 49.784 10.36 49.714 11.298C49.714 12.18 49.392 12.894 48.748 13.412C48.118 13.93 47.278 14.182 46.242 14.182ZM54.7785 14.182C53.7285 14.182 52.8465 13.832 52.1325 13.118C51.4325 12.404 51.0825 11.536 51.0825 10.5C51.0825 9.45 51.4325 8.582 52.1325 7.882C52.8465 7.168 53.7285 6.818 54.7785 6.818C56.1365 6.818 57.3405 7.518 57.9005 8.624L56.5985 9.38C56.2765 8.708 55.6045 8.302 54.7645 8.302C54.1485 8.302 53.6305 8.512 53.2105 8.932C52.8045 9.352 52.5945 9.87 52.5945 10.5C52.5945 11.13 52.8045 11.648 53.2105 12.068C53.6305 12.488 54.1485 12.698 54.7645 12.698C55.5905 12.698 56.2905 12.278 56.6265 11.62L57.9285 12.362C57.3265 13.482 56.1365 14.182 54.7785 14.182ZM60.8544 7V8.176C61.2324 7.308 61.9604 6.874 63.0104 6.874V8.512C62.4364 8.47 61.9324 8.61 61.4984 8.932C61.0644 9.24 60.8544 9.758 60.8544 10.472V14H59.3424V7H60.8544ZM67.3834 14.182C66.3614 14.182 65.4794 13.832 64.7654 13.118C64.0514 12.404 63.6874 11.536 63.6874 10.5C63.6874 9.464 64.0514 8.596 64.7654 7.882C65.4794 7.168 66.3614 6.818 67.3834 6.818C68.4194 6.818 69.2874 7.168 70.0014 7.882C70.7154 8.596 71.0794 9.464 71.0794 10.5C71.0794 11.536 70.7154 12.404 70.0014 13.118C69.2874 13.832 68.4194 14.182 67.3834 14.182ZM65.8294 12.082C66.2494 12.502 66.7674 12.712 67.3834 12.712C67.9994 12.712 68.5174 12.502 68.9374 12.082C69.3574 11.662 69.5674 11.13 69.5674 10.5C69.5674 9.87 69.3574 9.338 68.9374 8.918C68.5174 8.498 67.9994 8.288 67.3834 8.288C66.7674 8.288 66.2494 8.498 65.8294 8.918C65.4094 9.338 65.1994 9.87 65.1994 10.5C65.1994 11.13 65.4094 11.662 65.8294 12.082ZM74.2386 14H72.7266V3.78H74.2386V14ZM77.7862 14H76.2742V3.78H77.7862V14ZM87.2698 4.018V5.474C86.1638 5.376 85.6178 5.838 85.6178 6.86V7H87.2698V8.456H85.6178V14H84.1058V8.456H83.0418V7H84.1058V6.86C84.1058 4.942 85.1978 3.892 87.2698 4.018ZM91.4104 14.182C90.3884 14.182 89.5064 13.832 88.7924 13.118C88.0784 12.404 87.7144 11.536 87.7144 10.5C87.7144 9.464 88.0784 8.596 88.7924 7.882C89.5064 7.168 90.3884 6.818 91.4104 6.818C92.4464 6.818 93.3144 7.168 94.0284 7.882C94.7424 8.596 95.1064 9.464 95.1064 10.5C95.1064 11.536 94.7424 12.404 94.0284 13.118C93.3144 13.832 92.4464 14.182 91.4104 14.182ZM89.8564 12.082C90.2764 12.502 90.7944 12.712 91.4104 12.712C92.0264 12.712 92.5444 12.502 92.9644 12.082C93.3844 11.662 93.5944 11.13 93.5944 10.5C93.5944 9.87 93.3844 9.338 92.9644 8.918C92.5444 8.498 92.0264 8.288 91.4104 8.288C90.7944 8.288 90.2764 8.498 89.8564 8.918C89.4364 9.338 89.2264 9.87 89.2264 10.5C89.2264 11.13 89.4364 11.662 89.8564 12.082ZM98.2656 7V8.176C98.6436 7.308 99.3716 6.874 100.422 6.874V8.512C99.8476 8.47 99.3436 8.61 98.9096 8.932C98.4756 9.24 98.2656 9.758 98.2656 10.472V14H96.7536V7H98.2656ZM50.526 22.818C52.108 22.818 53.172 23.924 53.172 25.66V30H51.66V25.758C51.66 24.792 51.142 24.232 50.302 24.232C49.364 24.232 48.776 24.848 48.776 26.08V30H47.264V25.758C47.264 24.792 46.788 24.232 45.948 24.232C45.038 24.232 44.394 24.862 44.394 26.08V30H42.882V23H44.394V23.84C44.842 23.154 45.514 22.818 46.396 22.818C47.292 22.818 47.95 23.182 48.384 23.924C48.846 23.182 49.56 22.818 50.526 22.818ZM58.3742 30.182C57.3522 30.182 56.4702 29.832 55.7562 29.118C55.0422 28.404 54.6782 27.536 54.6782 26.5C54.6782 25.464 55.0422 24.596 55.7562 23.882C56.4702 23.168 57.3522 22.818 58.3742 22.818C59.4102 22.818 60.2782 23.168 60.9922 23.882C61.7062 24.596 62.0702 25.464 62.0702 26.5C62.0702 27.536 61.7062 28.404 60.9922 29.118C60.2782 29.832 59.4102 30.182 58.3742 30.182ZM56.8202 28.082C57.2402 28.502 57.7582 28.712 58.3742 28.712C58.9902 28.712 59.5082 28.502 59.9282 28.082C60.3482 27.662 60.5582 27.13 60.5582 26.5C60.5582 25.87 60.3482 25.338 59.9282 24.918C59.5082 24.498 58.9902 24.288 58.3742 24.288C57.7582 24.288 57.2402 24.498 56.8202 24.918C56.4002 25.338 56.1902 25.87 56.1902 26.5C56.1902 27.13 56.4002 27.662 56.8202 28.082ZM65.2294 23V24.176C65.6074 23.308 66.3354 22.874 67.3854 22.874V24.512C66.8114 24.47 66.3074 24.61 65.8734 24.932C65.4394 25.24 65.2294 25.758 65.2294 26.472V30H63.7174V23H65.2294ZM75.2164 27.144H69.6444C69.8684 28.208 70.7224 28.796 71.8844 28.796C72.6824 28.796 73.2844 28.502 73.6904 27.928L74.9364 28.656C74.2504 29.678 73.2284 30.182 71.8704 30.182C70.7364 30.182 69.8124 29.832 69.1124 29.146C68.4124 28.446 68.0624 27.564 68.0624 26.5C68.0624 25.45 68.4124 24.582 69.0984 23.882C69.7844 23.168 70.6804 22.818 71.7584 22.818C72.7804 22.818 73.6204 23.182 74.2784 23.896C74.9364 24.61 75.2724 25.492 75.2724 26.514C75.2724 26.668 75.2584 26.878 75.2164 27.144ZM69.6304 25.912H73.7464C73.5364 24.778 72.7384 24.19 71.7444 24.19C70.6244 24.19 69.8404 24.848 69.6304 25.912Z" fill="white"/>
</svg>
